<svg xmlns="http://www.w3.org/2000/svg" id="export" class="canvas" preserveAspectRatio="xMidYMid meet" style="position: absolute; margin: 0px;" width="304" height="777"><rect id="background" fill="#fff" pointer-events="all" width="304" height="777"/><g id="origin" transform="translate(13.784375, 13.784375) scale(1)"><g id="clusters" class="clusters"/><g id="edge-paths" class="edge-paths"><defs><marker id="arrowhead-vee" viewBox="0 0 10 10" refX="9" refY="5" markerUnits="strokeWidth" markerWidth="8" markerHeight="6" orient="auto" style="fill: rgb(0, 0, 0);"><path d="M 0 0 L 10 5 L 0 10 L 4 5 z" style="stroke-width: 1;"/></marker><marker id="arrowhead-vee-select" viewBox="0 0 10 10" refX="9" refY="5" markerUnits="strokeWidth" markerWidth="8" markerHeight="6" orient="auto" style="fill: rgb(238, 0, 0);"><path d="M 0 0 L 10 5 L 0 10 L 4 5 z" style="stroke-width: 1;"/></marker></defs><path class="edge-path" d="M137.84375,23L137.84375,26.666666666666668C137.84375,30.333333333333332,137.84375,37.666666666666664,137.84375,45C137.84375,52.333333333333336,137.84375,59.666666666666664,137.84375,63.333333333333336L137.84375,67" id="edge-input_1" style="stroke: rgb(0, 0, 0); stroke-width: 1px; fill: none; marker-end: url(&quot;#arrowhead-vee&quot;);"/><path class="edge-path" d="M137.84375,166.00000762939453L137.84375,167.6666742960612C137.84375,169.33334096272787,137.84375,172.6666742960612,137.84375,176.00000762939453C137.84375,179.33334096272787,137.84375,182.6666742960612,137.84375,184.33334096272787L137.84375,186.00000762939453" id="edge-conv2d_1" style="stroke: rgb(0, 0, 0); stroke-width: 1px; fill: none; marker-end: url(&quot;#arrowhead-vee&quot;);"/><path class="edge-path" d="M137.84375,285.00001525878906L137.84375,286.66668192545575C137.84375,288.3333485921224,137.84375,291.66668192545575,137.84375,295.00001525878906C137.84375,298.3333485921224,137.84375,301.66668192545575,137.84375,303.3333485921224L137.84375,305.00001525878906" id="edge-conv2d_2" style="stroke: rgb(0, 0, 0); stroke-width: 1px; fill: none; marker-end: url(&quot;#arrowhead-vee&quot;);"/><path class="edge-path" d="M75.30580276143513,404.0000228881836L73.20014813452927,405.6666895548503C71.09449350762343,407.3333562215169,66.8831842538117,410.6666895548503,64.77752962690586,414.0000228881836C62.671875,417.3333562215169,62.671875,420.6666895548503,62.671875,422.3333562215169L62.671875,424.0000228881836" id="edge-conv2d_3" style="stroke: rgb(0, 0, 0); stroke-width: 1px; fill: none; marker-end: url(&quot;#arrowhead-vee&quot;);"/><path class="edge-path" d="M200.38169723856487,404.0000228881836L202.4873518654707,405.6666895548503C204.5930064923766,407.3333562215169,208.80431574618828,410.6666895548503,210.90997037309413,414.0000228881836C213.015625,417.3333562215169,213.015625,420.6666895548503,213.015625,422.3333562215169L213.015625,424.0000228881836" id="edge-conv2d_3" style="stroke: rgb(0, 0, 0); stroke-width: 1px; fill: none; marker-end: url(&quot;#arrowhead-vee&quot;);"/><path class="edge-path" d="M62.671875,509.0000228881836L62.671875,510.6666895548503C62.671875,512.333356221517,62.671875,515.6666895548502,62.671875,519.0000228881836C62.671875,522.333356221517,62.671875,525.6666895548502,62.671875,527.333356221517L62.671875,529.0000228881836" id="edge-conv2d_4" style="stroke: rgb(0, 0, 0); stroke-width: 1px; fill: none; marker-end: url(&quot;#arrowhead-vee&quot;);"/><path class="edge-path" d="M213.015625,509.0000228881836L213.015625,510.6666895548503C213.015625,512.333356221517,213.015625,515.6666895548502,213.015625,519.0000228881836C213.015625,522.333356221517,213.015625,525.6666895548502,213.015625,527.333356221517L213.015625,529.0000228881836" id="edge-conv2d_5" style="stroke: rgb(0, 0, 0); stroke-width: 1px; fill: none; marker-end: url(&quot;#arrowhead-vee&quot;);"/><path class="edge-path" d="M62.671875,552.0000228881836L62.671875,553.6666895548502C62.671875,555.333356221517,62.671875,558.6666895548502,62.671875,562.0000228881836C62.671875,565.333356221517,62.671875,568.6666895548502,62.671875,570.333356221517L62.671875,572.0000228881836" id="edge-flatten_1" style="stroke: rgb(0, 0, 0); stroke-width: 1px; fill: none; marker-end: url(&quot;#arrowhead-vee&quot;);"/><path class="edge-path" d="M213.015625,552.0000228881836L213.015625,553.6666895548502C213.015625,555.333356221517,213.015625,558.6666895548502,213.015625,563.1666895548502C213.015625,567.6666895548502,213.015625,573.333356221517,213.015625,576.1666895548502L213.015625,579.0000228881836" id="edge-flatten_2" style="stroke: rgb(0, 0, 0); stroke-width: 1px; fill: none; marker-end: url(&quot;#arrowhead-vee&quot;);"/><path class="edge-path" d="M62.671875,629.0000228881836L62.671875,630.6666895548502C62.671875,632.333356221517,62.671875,635.6666895548502,62.671875,639.0000228881836C62.671875,642.333356221517,62.671875,645.6666895548502,62.671875,647.333356221517L62.671875,649.0000228881836" id="edge-dense_1" style="stroke: rgb(0, 0, 0); stroke-width: 1px; fill: none; marker-end: url(&quot;#arrowhead-vee&quot;);"/><path class="edge-path" d="M213.015625,622.0000228881836L213.015625,624.833356221517C213.015625,627.6666895548502,213.015625,633.333356221517,213.015625,637.833356221517C213.015625,642.333356221517,213.015625,645.6666895548502,213.015625,647.333356221517L213.015625,649.0000228881836" id="edge-dense_3" style="stroke: rgb(0, 0, 0); stroke-width: 1px; fill: none; marker-end: url(&quot;#arrowhead-vee&quot;);"/><path class="edge-path" d="M62.671875,706.0000228881836L62.671875,707.6666895548502C62.671875,709.333356221517,62.671875,712.6666895548502,62.671875,716.0000228881836C62.671875,719.333356221517,62.671875,722.6666895548502,62.671875,724.333356221517L62.671875,726.0000228881836" id="edge-dense_2" style="stroke: rgb(0, 0, 0); stroke-width: 1px; fill: none; marker-end: url(&quot;#arrowhead-vee&quot;);"/><path class="edge-path" d="M213.015625,706.0000228881836L213.015625,707.6666895548502C213.015625,709.333356221517,213.015625,712.6666895548502,213.015625,716.0000228881836C213.015625,719.333356221517,213.015625,722.6666895548502,213.015625,724.333356221517L213.015625,726.0000228881836" id="edge-dense_4" style="stroke: rgb(0, 0, 0); stroke-width: 1px; fill: none; marker-end: url(&quot;#arrowhead-vee&quot;);"/></g><g id="edge-labels" class="edge-labels"><g class="edge-label" transform="translate(169.1328125,45)" style="opacity: 1;"><g transform="translate(-26.2890625,-7)"><text style="font-family: -apple-system, BlinkMacSystemFont, &quot;Segoe WPC&quot;, &quot;Segoe UI&quot;, Ubuntu, &quot;Droid Sans&quot;, sans-serif, &quot;PingFang SC&quot;; font-size: 10px;"><tspan xml:space="preserve" dy="1em" x="1">?×5×14×14</tspan></text></g></g></g><g id="nodes" class="nodes"><g id="node-conv2d_1" class="node graph-node" transform="translate(137.84375,116.50000381469727)" style="opacity: 1;"><g transform="translate(-62.671875,-49.500003814697266)"><g><g class="node-item node-item-type node-item-type-layer" transform="translate(0,0)"><path d="M5,0h115.34375a5,5 0 0 1 5,5v18a0,0 0 0 1 0,0h-125.34375a0,0 0 0 1 0,0v-18a5,5 0 0 1 5,-5z" style="stroke: rgb(0, 0, 0); fill: rgb(51, 85, 136); stroke-width: 0;"/><text x="6" y="16" style="font-family: -apple-system, BlinkMacSystemFont, &quot;Segoe WPC&quot;, &quot;Segoe UI&quot;, Ubuntu, &quot;Droid Sans&quot;, sans-serif, &quot;PingFang SC&quot;; font-size: 11px; text-rendering: geometricprecision; fill: rgb(255, 255, 255);">Conv2D</text><title>conv2d_1</title></g><g class="node-attribute" transform="translate(0,23)"><path d="M0,0h125.34375a0,0 0 0 1 0,0v71a5,5 0 0 1 -5,5h-115.34375a5,5 0 0 1 -5,-5v-71a0,0 0 0 1 0,0z" style="stroke: rgb(0, 0, 0); fill: rgb(255, 255, 255); stroke-width: 0;"/><text xml:space="preserve" x="6" y="14" style="font-family: -apple-system, BlinkMacSystemFont, &quot;Segoe WPC&quot;, &quot;Segoe UI&quot;, Ubuntu, &quot;Droid Sans&quot;, sans-serif, &quot;PingFang SC&quot;; font-size: 9px; font-weight: normal; text-rendering: geometricprecision;"><tspan>activation</tspan><tspan> = relu</tspan></text><text xml:space="preserve" x="6" y="28" style="font-family: -apple-system, BlinkMacSystemFont, &quot;Segoe WPC&quot;, &quot;Segoe UI&quot;, Ubuntu, &quot;Droid Sans&quot;, sans-serif, &quot;PingFang SC&quot;; font-size: 9px; font-weight: normal; text-rendering: geometricprecision;"><tspan>data_format</tspan><tspan> = channels_first</tspan></text><text xml:space="preserve" x="6" y="42" style="font-family: -apple-system, BlinkMacSystemFont, &quot;Segoe WPC&quot;, &quot;Segoe UI&quot;, Ubuntu, &quot;Droid Sans&quot;, sans-serif, &quot;PingFang SC&quot;; font-size: 9px; font-weight: normal; text-rendering: geometricprecision;"><tspan>filters</tspan><tspan> = 32</tspan></text><text xml:space="preserve" x="6" y="56" style="font-family: -apple-system, BlinkMacSystemFont, &quot;Segoe WPC&quot;, &quot;Segoe UI&quot;, Ubuntu, &quot;Droid Sans&quot;, sans-serif, &quot;PingFang SC&quot;; font-size: 9px; font-weight: normal; text-rendering: geometricprecision;"><tspan>kernel_size</tspan><tspan> = 3, 3</tspan></text><text xml:space="preserve" x="6" y="70" style="font-family: -apple-system, BlinkMacSystemFont, &quot;Segoe WPC&quot;, &quot;Segoe UI&quot;, Ubuntu, &quot;Droid Sans&quot;, sans-serif, &quot;PingFang SC&quot;; font-size: 9px; font-weight: normal; text-rendering: geometricprecision;"><tspan>padding</tspan><tspan> = same</tspan></text><line class="node" x1="0" x2="125.34375" y1="0" y2="0" style="stroke: rgb(51, 51, 51); fill: none; stroke-width: 1px;"/></g><path class="node border" d="M5,0h115.34375a5,5 0 0 1 5,5v89a5,5 0 0 1 -5,5h-115.34375a5,5 0 0 1 -5,-5v-89a5,5 0 0 1 5,-5z" style="stroke: rgb(51, 51, 51); fill: none; stroke-width: 1px;"/></g></g></g><g id="node-conv2d_2" class="node graph-node" transform="translate(137.84375,235.5000114440918)" style="opacity: 1;"><g transform="translate(-62.671875,-49.500003814697266)"><g><g class="node-item node-item-type node-item-type-layer" transform="translate(0,0)"><path d="M5,0h115.34375a5,5 0 0 1 5,5v18a0,0 0 0 1 0,0h-125.34375a0,0 0 0 1 0,0v-18a5,5 0 0 1 5,-5z" style="stroke: rgb(0, 0, 0); fill: rgb(51, 85, 136); stroke-width: 0;"/><text x="6" y="16" style="font-family: -apple-system, BlinkMacSystemFont, &quot;Segoe WPC&quot;, &quot;Segoe UI&quot;, Ubuntu, &quot;Droid Sans&quot;, sans-serif, &quot;PingFang SC&quot;; font-size: 11px; text-rendering: geometricprecision; fill: rgb(255, 255, 255);">Conv2D</text><title>conv2d_2</title></g><g class="node-attribute" transform="translate(0,23)"><path d="M0,0h125.34375a0,0 0 0 1 0,0v71a5,5 0 0 1 -5,5h-115.34375a5,5 0 0 1 -5,-5v-71a0,0 0 0 1 0,0z" style="stroke: rgb(0, 0, 0); fill: rgb(255, 255, 255); stroke-width: 0;"/><text xml:space="preserve" x="6" y="14" style="font-family: -apple-system, BlinkMacSystemFont, &quot;Segoe WPC&quot;, &quot;Segoe UI&quot;, Ubuntu, &quot;Droid Sans&quot;, sans-serif, &quot;PingFang SC&quot;; font-size: 9px; font-weight: normal; text-rendering: geometricprecision;"><tspan>activation</tspan><tspan> = relu</tspan></text><text xml:space="preserve" x="6" y="28" style="font-family: -apple-system, BlinkMacSystemFont, &quot;Segoe WPC&quot;, &quot;Segoe UI&quot;, Ubuntu, &quot;Droid Sans&quot;, sans-serif, &quot;PingFang SC&quot;; font-size: 9px; font-weight: normal; text-rendering: geometricprecision;"><tspan>data_format</tspan><tspan> = channels_first</tspan></text><text xml:space="preserve" x="6" y="42" style="font-family: -apple-system, BlinkMacSystemFont, &quot;Segoe WPC&quot;, &quot;Segoe UI&quot;, Ubuntu, &quot;Droid Sans&quot;, sans-serif, &quot;PingFang SC&quot;; font-size: 9px; font-weight: normal; text-rendering: geometricprecision;"><tspan>filters</tspan><tspan> = 64</tspan></text><text xml:space="preserve" x="6" y="56" style="font-family: -apple-system, BlinkMacSystemFont, &quot;Segoe WPC&quot;, &quot;Segoe UI&quot;, Ubuntu, &quot;Droid Sans&quot;, sans-serif, &quot;PingFang SC&quot;; font-size: 9px; font-weight: normal; text-rendering: geometricprecision;"><tspan>kernel_size</tspan><tspan> = 3, 3</tspan></text><text xml:space="preserve" x="6" y="70" style="font-family: -apple-system, BlinkMacSystemFont, &quot;Segoe WPC&quot;, &quot;Segoe UI&quot;, Ubuntu, &quot;Droid Sans&quot;, sans-serif, &quot;PingFang SC&quot;; font-size: 9px; font-weight: normal; text-rendering: geometricprecision;"><tspan>padding</tspan><tspan> = same</tspan></text><line class="node" x1="0" x2="125.34375" y1="0" y2="0" style="stroke: rgb(51, 51, 51); fill: none; stroke-width: 1px;"/></g><path class="node border" d="M5,0h115.34375a5,5 0 0 1 5,5v89a5,5 0 0 1 -5,5h-115.34375a5,5 0 0 1 -5,-5v-89a5,5 0 0 1 5,-5z" style="stroke: rgb(51, 51, 51); fill: none; stroke-width: 1px;"/></g></g></g><g id="node-conv2d_3" class="node graph-node" transform="translate(137.84375,354.5000190734863)" style="opacity: 1;"><g transform="translate(-62.671875,-49.500003814697266)"><g><g class="node-item node-item-type node-item-type-layer" transform="translate(0,0)"><path d="M5,0h115.34375a5,5 0 0 1 5,5v18a0,0 0 0 1 0,0h-125.34375a0,0 0 0 1 0,0v-18a5,5 0 0 1 5,-5z" style="stroke: rgb(0, 0, 0); fill: rgb(51, 85, 136); stroke-width: 0;"/><text x="6" y="16" style="font-family: -apple-system, BlinkMacSystemFont, &quot;Segoe WPC&quot;, &quot;Segoe UI&quot;, Ubuntu, &quot;Droid Sans&quot;, sans-serif, &quot;PingFang SC&quot;; font-size: 11px; text-rendering: geometricprecision; fill: rgb(255, 255, 255);">Conv2D</text><title>conv2d_3</title></g><g class="node-attribute" transform="translate(0,23)"><path d="M0,0h125.34375a0,0 0 0 1 0,0v71a5,5 0 0 1 -5,5h-115.34375a5,5 0 0 1 -5,-5v-71a0,0 0 0 1 0,0z" style="stroke: rgb(0, 0, 0); fill: rgb(255, 255, 255); stroke-width: 0;"/><text xml:space="preserve" x="6" y="14" style="font-family: -apple-system, BlinkMacSystemFont, &quot;Segoe WPC&quot;, &quot;Segoe UI&quot;, Ubuntu, &quot;Droid Sans&quot;, sans-serif, &quot;PingFang SC&quot;; font-size: 9px; font-weight: normal; text-rendering: geometricprecision;"><tspan>activation</tspan><tspan> = relu</tspan></text><text xml:space="preserve" x="6" y="28" style="font-family: -apple-system, BlinkMacSystemFont, &quot;Segoe WPC&quot;, &quot;Segoe UI&quot;, Ubuntu, &quot;Droid Sans&quot;, sans-serif, &quot;PingFang SC&quot;; font-size: 9px; font-weight: normal; text-rendering: geometricprecision;"><tspan>data_format</tspan><tspan> = channels_first</tspan></text><text xml:space="preserve" x="6" y="42" style="font-family: -apple-system, BlinkMacSystemFont, &quot;Segoe WPC&quot;, &quot;Segoe UI&quot;, Ubuntu, &quot;Droid Sans&quot;, sans-serif, &quot;PingFang SC&quot;; font-size: 9px; font-weight: normal; text-rendering: geometricprecision;"><tspan>filters</tspan><tspan> = 128</tspan></text><text xml:space="preserve" x="6" y="56" style="font-family: -apple-system, BlinkMacSystemFont, &quot;Segoe WPC&quot;, &quot;Segoe UI&quot;, Ubuntu, &quot;Droid Sans&quot;, sans-serif, &quot;PingFang SC&quot;; font-size: 9px; font-weight: normal; text-rendering: geometricprecision;"><tspan>kernel_size</tspan><tspan> = 3, 3</tspan></text><text xml:space="preserve" x="6" y="70" style="font-family: -apple-system, BlinkMacSystemFont, &quot;Segoe WPC&quot;, &quot;Segoe UI&quot;, Ubuntu, &quot;Droid Sans&quot;, sans-serif, &quot;PingFang SC&quot;; font-size: 9px; font-weight: normal; text-rendering: geometricprecision;"><tspan>padding</tspan><tspan> = same</tspan></text><line class="node" x1="0" x2="125.34375" y1="0" y2="0" style="stroke: rgb(51, 51, 51); fill: none; stroke-width: 1px;"/></g><path class="node border" d="M5,0h115.34375a5,5 0 0 1 5,5v89a5,5 0 0 1 -5,5h-115.34375a5,5 0 0 1 -5,-5v-89a5,5 0 0 1 5,-5z" style="stroke: rgb(51, 51, 51); fill: none; stroke-width: 1px;"/></g></g></g><g id="node-conv2d_4" class="node graph-node" transform="translate(62.671875,466.5000228881836)" style="opacity: 1;"><g transform="translate(-62.671875,-42.5)"><g><g class="node-item node-item-type node-item-type-layer" transform="translate(0,0)"><path d="M5,0h115.34375a5,5 0 0 1 5,5v18a0,0 0 0 1 0,0h-125.34375a0,0 0 0 1 0,0v-18a5,5 0 0 1 5,-5z" style="stroke: rgb(0, 0, 0); fill: rgb(51, 85, 136); stroke-width: 0;"/><text x="6" y="16" style="font-family: -apple-system, BlinkMacSystemFont, &quot;Segoe WPC&quot;, &quot;Segoe UI&quot;, Ubuntu, &quot;Droid Sans&quot;, sans-serif, &quot;PingFang SC&quot;; font-size: 11px; text-rendering: geometricprecision; fill: rgb(255, 255, 255);">Conv2D</text><title>conv2d_4</title></g><g class="node-attribute" transform="translate(0,23)"><path d="M0,0h125.34375a0,0 0 0 1 0,0v57a5,5 0 0 1 -5,5h-115.34375a5,5 0 0 1 -5,-5v-57a0,0 0 0 1 0,0z" style="stroke: rgb(0, 0, 0); fill: rgb(255, 255, 255); stroke-width: 0;"/><text xml:space="preserve" x="6" y="14" style="font-family: -apple-system, BlinkMacSystemFont, &quot;Segoe WPC&quot;, &quot;Segoe UI&quot;, Ubuntu, &quot;Droid Sans&quot;, sans-serif, &quot;PingFang SC&quot;; font-size: 9px; font-weight: normal; text-rendering: geometricprecision;"><tspan>activation</tspan><tspan> = relu</tspan></text><text xml:space="preserve" x="6" y="28" style="font-family: -apple-system, BlinkMacSystemFont, &quot;Segoe WPC&quot;, &quot;Segoe UI&quot;, Ubuntu, &quot;Droid Sans&quot;, sans-serif, &quot;PingFang SC&quot;; font-size: 9px; font-weight: normal; text-rendering: geometricprecision;"><tspan>data_format</tspan><tspan> = channels_first</tspan></text><text xml:space="preserve" x="6" y="42" style="font-family: -apple-system, BlinkMacSystemFont, &quot;Segoe WPC&quot;, &quot;Segoe UI&quot;, Ubuntu, &quot;Droid Sans&quot;, sans-serif, &quot;PingFang SC&quot;; font-size: 9px; font-weight: normal; text-rendering: geometricprecision;"><tspan>filters</tspan><tspan> = 4</tspan></text><text xml:space="preserve" x="6" y="56" style="font-family: -apple-system, BlinkMacSystemFont, &quot;Segoe WPC&quot;, &quot;Segoe UI&quot;, Ubuntu, &quot;Droid Sans&quot;, sans-serif, &quot;PingFang SC&quot;; font-size: 9px; font-weight: normal; text-rendering: geometricprecision;"><tspan>kernel_size</tspan><tspan> = 1, 1</tspan></text><line class="node" x1="0" x2="125.34375" y1="0" y2="0" style="stroke: rgb(51, 51, 51); fill: none; stroke-width: 1px;"/></g><path class="node border" d="M5,0h115.34375a5,5 0 0 1 5,5v75a5,5 0 0 1 -5,5h-115.34375a5,5 0 0 1 -5,-5v-75a5,5 0 0 1 5,-5z" style="stroke: rgb(51, 51, 51); fill: none; stroke-width: 1px;"/></g></g></g><g id="node-conv2d_5" class="node graph-node" transform="translate(213.015625,466.5000228881836)" style="opacity: 1;"><g transform="translate(-62.671875,-42.5)"><g><g class="node-item node-item-type node-item-type-layer" transform="translate(0,0)"><path d="M5,0h115.34375a5,5 0 0 1 5,5v18a0,0 0 0 1 0,0h-125.34375a0,0 0 0 1 0,0v-18a5,5 0 0 1 5,-5z" style="stroke: rgb(0, 0, 0); fill: rgb(51, 85, 136); stroke-width: 0;"/><text x="6" y="16" style="font-family: -apple-system, BlinkMacSystemFont, &quot;Segoe WPC&quot;, &quot;Segoe UI&quot;, Ubuntu, &quot;Droid Sans&quot;, sans-serif, &quot;PingFang SC&quot;; font-size: 11px; text-rendering: geometricprecision; fill: rgb(255, 255, 255);">Conv2D</text><title>conv2d_5</title></g><g class="node-attribute" transform="translate(0,23)"><path d="M0,0h125.34375a0,0 0 0 1 0,0v57a5,5 0 0 1 -5,5h-115.34375a5,5 0 0 1 -5,-5v-57a0,0 0 0 1 0,0z" style="stroke: rgb(0, 0, 0); fill: rgb(255, 255, 255); stroke-width: 0;"/><text xml:space="preserve" x="6" y="14" style="font-family: -apple-system, BlinkMacSystemFont, &quot;Segoe WPC&quot;, &quot;Segoe UI&quot;, Ubuntu, &quot;Droid Sans&quot;, sans-serif, &quot;PingFang SC&quot;; font-size: 9px; font-weight: normal; text-rendering: geometricprecision;"><tspan>activation</tspan><tspan> = relu</tspan></text><text xml:space="preserve" x="6" y="28" style="font-family: -apple-system, BlinkMacSystemFont, &quot;Segoe WPC&quot;, &quot;Segoe UI&quot;, Ubuntu, &quot;Droid Sans&quot;, sans-serif, &quot;PingFang SC&quot;; font-size: 9px; font-weight: normal; text-rendering: geometricprecision;"><tspan>data_format</tspan><tspan> = channels_first</tspan></text><text xml:space="preserve" x="6" y="42" style="font-family: -apple-system, BlinkMacSystemFont, &quot;Segoe WPC&quot;, &quot;Segoe UI&quot;, Ubuntu, &quot;Droid Sans&quot;, sans-serif, &quot;PingFang SC&quot;; font-size: 9px; font-weight: normal; text-rendering: geometricprecision;"><tspan>filters</tspan><tspan> = 2</tspan></text><text xml:space="preserve" x="6" y="56" style="font-family: -apple-system, BlinkMacSystemFont, &quot;Segoe WPC&quot;, &quot;Segoe UI&quot;, Ubuntu, &quot;Droid Sans&quot;, sans-serif, &quot;PingFang SC&quot;; font-size: 9px; font-weight: normal; text-rendering: geometricprecision;"><tspan>kernel_size</tspan><tspan> = 1, 1</tspan></text><line class="node" x1="0" x2="125.34375" y1="0" y2="0" style="stroke: rgb(51, 51, 51); fill: none; stroke-width: 1px;"/></g><path class="node border" d="M5,0h115.34375a5,5 0 0 1 5,5v75a5,5 0 0 1 -5,5h-115.34375a5,5 0 0 1 -5,-5v-75a5,5 0 0 1 5,-5z" style="stroke: rgb(51, 51, 51); fill: none; stroke-width: 1px;"/></g></g></g><g id="node-flatten_1" class="node graph-node" transform="translate(62.671875,540.5000228881836)" style="opacity: 1;"><g transform="translate(-23.5390625,-11.5)"><g><g class="node-item node-item-type node-item-type-shape" transform="translate(0,0)"><path d="M5,0h37.078125a5,5 0 0 1 5,5v13a5,5 0 0 1 -5,5h-37.078125a5,5 0 0 1 -5,-5v-13a5,5 0 0 1 5,-5z" style="stroke: rgb(0, 0, 0); fill: rgb(108, 79, 71); stroke-width: 0;"/><text x="6" y="16" style="font-family: -apple-system, BlinkMacSystemFont, &quot;Segoe WPC&quot;, &quot;Segoe UI&quot;, Ubuntu, &quot;Droid Sans&quot;, sans-serif, &quot;PingFang SC&quot;; font-size: 11px; text-rendering: geometricprecision; fill: rgb(255, 255, 255);">Flatten</text><title>flatten_1</title></g><path class="node border" d="M5,0h37.078125a5,5 0 0 1 5,5v13a5,5 0 0 1 -5,5h-37.078125a5,5 0 0 1 -5,-5v-13a5,5 0 0 1 5,-5z" style="stroke: rgb(51, 51, 51); fill: none; stroke-width: 1px;"/></g></g></g><g id="node-flatten_2" class="node graph-node" transform="translate(213.015625,540.5000228881836)" style="opacity: 1;"><g transform="translate(-23.5390625,-11.5)"><g><g class="node-item node-item-type node-item-type-shape" transform="translate(0,0)"><path d="M5,0h37.078125a5,5 0 0 1 5,5v13a5,5 0 0 1 -5,5h-37.078125a5,5 0 0 1 -5,-5v-13a5,5 0 0 1 5,-5z" style="stroke: rgb(0, 0, 0); fill: rgb(108, 79, 71); stroke-width: 0;"/><text x="6" y="16" style="font-family: -apple-system, BlinkMacSystemFont, &quot;Segoe WPC&quot;, &quot;Segoe UI&quot;, Ubuntu, &quot;Droid Sans&quot;, sans-serif, &quot;PingFang SC&quot;; font-size: 11px; text-rendering: geometricprecision; fill: rgb(255, 255, 255);">Flatten</text><title>flatten_2</title></g><path class="node border" d="M5,0h37.078125a5,5 0 0 1 5,5v13a5,5 0 0 1 -5,5h-37.078125a5,5 0 0 1 -5,-5v-13a5,5 0 0 1 5,-5z" style="stroke: rgb(51, 51, 51); fill: none; stroke-width: 1px;"/></g></g></g><g id="node-dense_1" class="node graph-node" transform="translate(62.671875,600.5000228881836)" style="opacity: 1;"><g transform="translate(-50,-28.5)"><g><g class="node-item node-item-type node-item-type-layer" transform="translate(0,0)"><path d="M5,0h90a5,5 0 0 1 5,5v18a0,0 0 0 1 0,0h-100a0,0 0 0 1 0,0v-18a5,5 0 0 1 5,-5z" style="stroke: rgb(0, 0, 0); fill: rgb(51, 85, 136); stroke-width: 0;"/><text x="6" y="16" style="font-family: -apple-system, BlinkMacSystemFont, &quot;Segoe WPC&quot;, &quot;Segoe UI&quot;, Ubuntu, &quot;Droid Sans&quot;, sans-serif, &quot;PingFang SC&quot;; font-size: 11px; text-rendering: geometricprecision; fill: rgb(255, 255, 255);">Dense</text><title>dense_1</title></g><g class="node-attribute" transform="translate(0,23)"><path d="M0,0h100a0,0 0 0 1 0,0v29a5,5 0 0 1 -5,5h-90a5,5 0 0 1 -5,-5v-29a0,0 0 0 1 0,0z" style="stroke: rgb(0, 0, 0); fill: rgb(255, 255, 255); stroke-width: 0;"/><text xml:space="preserve" x="6" y="14" style="font-family: -apple-system, BlinkMacSystemFont, &quot;Segoe WPC&quot;, &quot;Segoe UI&quot;, Ubuntu, &quot;Droid Sans&quot;, sans-serif, &quot;PingFang SC&quot;; font-size: 9px; font-weight: normal; text-rendering: geometricprecision;"><tspan>activation</tspan><tspan> = relu</tspan></text><text xml:space="preserve" x="6" y="28" style="font-family: -apple-system, BlinkMacSystemFont, &quot;Segoe WPC&quot;, &quot;Segoe UI&quot;, Ubuntu, &quot;Droid Sans&quot;, sans-serif, &quot;PingFang SC&quot;; font-size: 9px; font-weight: normal; text-rendering: geometricprecision;"><tspan>units</tspan><tspan> = 1024</tspan></text><line class="node" x1="0" x2="100" y1="0" y2="0" style="stroke: rgb(51, 51, 51); fill: none; stroke-width: 1px;"/></g><path class="node border" d="M5,0h90a5,5 0 0 1 5,5v47a5,5 0 0 1 -5,5h-90a5,5 0 0 1 -5,-5v-47a5,5 0 0 1 5,-5z" style="stroke: rgb(51, 51, 51); fill: none; stroke-width: 1px;"/></g></g></g><g id="node-dense_3" class="node graph-node" transform="translate(213.015625,600.5000228881836)" style="opacity: 1;"><g transform="translate(-50,-21.5)"><g><g class="node-item node-item-type node-item-type-layer" transform="translate(0,0)"><path d="M5,0h90a5,5 0 0 1 5,5v18a0,0 0 0 1 0,0h-100a0,0 0 0 1 0,0v-18a5,5 0 0 1 5,-5z" style="stroke: rgb(0, 0, 0); fill: rgb(51, 85, 136); stroke-width: 0;"/><text x="6" y="16" style="font-family: -apple-system, BlinkMacSystemFont, &quot;Segoe WPC&quot;, &quot;Segoe UI&quot;, Ubuntu, &quot;Droid Sans&quot;, sans-serif, &quot;PingFang SC&quot;; font-size: 11px; text-rendering: geometricprecision; fill: rgb(255, 255, 255);">Dense</text><title>dense_3</title></g><g class="node-attribute" transform="translate(0,23)"><path d="M0,0h100a0,0 0 0 1 0,0v15a5,5 0 0 1 -5,5h-90a5,5 0 0 1 -5,-5v-15a0,0 0 0 1 0,0z" style="stroke: rgb(0, 0, 0); fill: rgb(255, 255, 255); stroke-width: 0;"/><text xml:space="preserve" x="6" y="14" style="font-family: -apple-system, BlinkMacSystemFont, &quot;Segoe WPC&quot;, &quot;Segoe UI&quot;, Ubuntu, &quot;Droid Sans&quot;, sans-serif, &quot;PingFang SC&quot;; font-size: 9px; font-weight: normal; text-rendering: geometricprecision;"><tspan>units</tspan><tspan> = 64</tspan></text><line class="node" x1="0" x2="100" y1="0" y2="0" style="stroke: rgb(51, 51, 51); fill: none; stroke-width: 1px;"/></g><path class="node border" d="M5,0h90a5,5 0 0 1 5,5v33a5,5 0 0 1 -5,5h-90a5,5 0 0 1 -5,-5v-33a5,5 0 0 1 5,-5z" style="stroke: rgb(51, 51, 51); fill: none; stroke-width: 1px;"/></g></g></g><g id="node-dense_2" class="node graph-node" transform="translate(62.671875,677.5000228881836)" style="opacity: 1;"><g transform="translate(-50,-28.5)"><g><g class="node-item node-item-type node-item-type-layer" transform="translate(0,0)"><path d="M5,0h90a5,5 0 0 1 5,5v18a0,0 0 0 1 0,0h-100a0,0 0 0 1 0,0v-18a5,5 0 0 1 5,-5z" style="stroke: rgb(0, 0, 0); fill: rgb(51, 85, 136); stroke-width: 0;"/><text x="6" y="16" style="font-family: -apple-system, BlinkMacSystemFont, &quot;Segoe WPC&quot;, &quot;Segoe UI&quot;, Ubuntu, &quot;Droid Sans&quot;, sans-serif, &quot;PingFang SC&quot;; font-size: 11px; text-rendering: geometricprecision; fill: rgb(255, 255, 255);">Dense</text><title>dense_2</title></g><g class="node-attribute" transform="translate(0,23)"><path d="M0,0h100a0,0 0 0 1 0,0v29a5,5 0 0 1 -5,5h-90a5,5 0 0 1 -5,-5v-29a0,0 0 0 1 0,0z" style="stroke: rgb(0, 0, 0); fill: rgb(255, 255, 255); stroke-width: 0;"/><text xml:space="preserve" x="6" y="14" style="font-family: -apple-system, BlinkMacSystemFont, &quot;Segoe WPC&quot;, &quot;Segoe UI&quot;, Ubuntu, &quot;Droid Sans&quot;, sans-serif, &quot;PingFang SC&quot;; font-size: 9px; font-weight: normal; text-rendering: geometricprecision;"><tspan>activation</tspan><tspan> = softmax</tspan></text><text xml:space="preserve" x="6" y="28" style="font-family: -apple-system, BlinkMacSystemFont, &quot;Segoe WPC&quot;, &quot;Segoe UI&quot;, Ubuntu, &quot;Droid Sans&quot;, sans-serif, &quot;PingFang SC&quot;; font-size: 9px; font-weight: normal; text-rendering: geometricprecision;"><tspan>units</tspan><tspan> = 4672</tspan></text><line class="node" x1="0" x2="100" y1="0" y2="0" style="stroke: rgb(51, 51, 51); fill: none; stroke-width: 1px;"/></g><path class="node border" d="M5,0h90a5,5 0 0 1 5,5v47a5,5 0 0 1 -5,5h-90a5,5 0 0 1 -5,-5v-47a5,5 0 0 1 5,-5z" style="stroke: rgb(51, 51, 51); fill: none; stroke-width: 1px;"/></g></g></g><g id="node-dense_4" class="node graph-node" transform="translate(213.015625,677.5000228881836)" style="opacity: 1;"><g transform="translate(-50,-28.5)"><g><g class="node-item node-item-type node-item-type-layer" transform="translate(0,0)"><path d="M5,0h90a5,5 0 0 1 5,5v18a0,0 0 0 1 0,0h-100a0,0 0 0 1 0,0v-18a5,5 0 0 1 5,-5z" style="stroke: rgb(0, 0, 0); fill: rgb(51, 85, 136); stroke-width: 0;"/><text x="6" y="16" style="font-family: -apple-system, BlinkMacSystemFont, &quot;Segoe WPC&quot;, &quot;Segoe UI&quot;, Ubuntu, &quot;Droid Sans&quot;, sans-serif, &quot;PingFang SC&quot;; font-size: 11px; text-rendering: geometricprecision; fill: rgb(255, 255, 255);">Dense</text><title>dense_4</title></g><g class="node-attribute" transform="translate(0,23)"><path d="M0,0h100a0,0 0 0 1 0,0v29a5,5 0 0 1 -5,5h-90a5,5 0 0 1 -5,-5v-29a0,0 0 0 1 0,0z" style="stroke: rgb(0, 0, 0); fill: rgb(255, 255, 255); stroke-width: 0;"/><text xml:space="preserve" x="6" y="14" style="font-family: -apple-system, BlinkMacSystemFont, &quot;Segoe WPC&quot;, &quot;Segoe UI&quot;, Ubuntu, &quot;Droid Sans&quot;, sans-serif, &quot;PingFang SC&quot;; font-size: 9px; font-weight: normal; text-rendering: geometricprecision;"><tspan>activation</tspan><tspan> = tanh</tspan></text><text xml:space="preserve" x="6" y="28" style="font-family: -apple-system, BlinkMacSystemFont, &quot;Segoe WPC&quot;, &quot;Segoe UI&quot;, Ubuntu, &quot;Droid Sans&quot;, sans-serif, &quot;PingFang SC&quot;; font-size: 9px; font-weight: normal; text-rendering: geometricprecision;"><tspan>units</tspan><tspan> = 1</tspan></text><line class="node" x1="0" x2="100" y1="0" y2="0" style="stroke: rgb(51, 51, 51); fill: none; stroke-width: 1px;"/></g><path class="node border" d="M5,0h90a5,5 0 0 1 5,5v47a5,5 0 0 1 -5,5h-90a5,5 0 0 1 -5,-5v-47a5,5 0 0 1 5,-5z" style="stroke: rgb(51, 51, 51); fill: none; stroke-width: 1px;"/></g></g></g><g class="node graph-input" transform="translate(137.84375,11.5)" style="opacity: 1;"><g transform="translate(-24.90625,-11.5)"><g><g class="node-item graph-item-input" transform="translate(0,0)"><path d="M5,0h39.8125a5,5 0 0 1 5,5v13a5,5 0 0 1 -5,5h-39.8125a5,5 0 0 1 -5,-5v-13a5,5 0 0 1 5,-5z" style="stroke: rgb(0, 0, 0); fill: rgb(238, 238, 238); stroke-width: 0;"/><text x="6" y="16" style="font-family: -apple-system, BlinkMacSystemFont, &quot;Segoe WPC&quot;, &quot;Segoe UI&quot;, Ubuntu, &quot;Droid Sans&quot;, sans-serif, &quot;PingFang SC&quot;; font-size: 11px; text-rendering: geometricprecision;">input_1</text><title>float32[?,5,14,14]</title></g><path class="node border" d="M5,0h39.8125a5,5 0 0 1 5,5v13a5,5 0 0 1 -5,5h-39.8125a5,5 0 0 1 -5,-5v-13a5,5 0 0 1 5,-5z" style="stroke: rgb(51, 51, 51); fill: none; stroke-width: 1px;"/></g></g></g><g class="node" transform="translate(62.671875,737.5000228881836)" style="opacity: 1;"><g transform="translate(-26.7265625,-11.5)"><g><g class="node-item graph-item-output" transform="translate(0,0)"><path d="M5,0h43.453125a5,5 0 0 1 5,5v13a5,5 0 0 1 -5,5h-43.453125a5,5 0 0 1 -5,-5v-13a5,5 0 0 1 5,-5z" style="stroke: rgb(0, 0, 0); fill: rgb(238, 238, 238); stroke-width: 0;"/><text x="6" y="16" style="font-family: -apple-system, BlinkMacSystemFont, &quot;Segoe WPC&quot;, &quot;Segoe UI&quot;, Ubuntu, &quot;Droid Sans&quot;, sans-serif, &quot;PingFang SC&quot;; font-size: 11px; text-rendering: geometricprecision;">dense_2</text></g><path class="node border" d="M5,0h43.453125a5,5 0 0 1 5,5v13a5,5 0 0 1 -5,5h-43.453125a5,5 0 0 1 -5,-5v-13a5,5 0 0 1 5,-5z" style="stroke: rgb(51, 51, 51); fill: none; stroke-width: 1px;"/></g></g></g><g class="node" transform="translate(213.015625,737.5000228881836)" style="opacity: 1;"><g transform="translate(-26.7265625,-11.5)"><g><g class="node-item graph-item-output" transform="translate(0,0)"><path d="M5,0h43.453125a5,5 0 0 1 5,5v13a5,5 0 0 1 -5,5h-43.453125a5,5 0 0 1 -5,-5v-13a5,5 0 0 1 5,-5z" style="stroke: rgb(0, 0, 0); fill: rgb(238, 238, 238); stroke-width: 0;"/><text x="6" y="16" style="font-family: -apple-system, BlinkMacSystemFont, &quot;Segoe WPC&quot;, &quot;Segoe UI&quot;, Ubuntu, &quot;Droid Sans&quot;, sans-serif, &quot;PingFang SC&quot;; font-size: 11px; text-rendering: geometricprecision;">dense_4</text></g><path class="node border" d="M5,0h43.453125a5,5 0 0 1 5,5v13a5,5 0 0 1 -5,5h-43.453125a5,5 0 0 1 -5,-5v-13a5,5 0 0 1 5,-5z" style="stroke: rgb(51, 51, 51); fill: none; stroke-width: 1px;"/></g></g></g></g></g></svg>